<svg width="920" height="960" viewBox="0 0 920 960" fill="none" xmlns="http://www.w3.org/2000/svg">
  <rect width="920" height="960" fill="#eef3f8"/>

  <rect x="38" y="30" width="840" height="610" rx="12" fill="#ffffff" stroke="#d8e0ea"/>
  <rect x="70" y="78" width="72" height="40" rx="20" fill="#5b2cff"/>
  <circle cx="118" cy="98" r="18" fill="#ffffff"/>
  <text x="154" y="107" font-family="Inter, Arial, sans-serif" font-size="30" font-weight="500" fill="#1f2937">Auto-start flow if...</text>
  <circle cx="415" cy="97" r="13" stroke="#64748b" stroke-width="2"/>
  <text x="411" y="106" font-family="Inter, Arial, sans-serif" font-size="24" font-weight="600" fill="#64748b">?</text>

  <rect x="70" y="142" width="88" height="46" rx="10" fill="#f1f5f9" stroke="#dbe3ed"/>
  <text x="106" y="174" text-anchor="middle" font-family="Inter, Arial, sans-serif" font-size="22" font-weight="700" fill="#1f2937">If</text>

  <rect x="174" y="142" width="672" height="108" rx="14" fill="#ffffff" stroke="#dbe3ed" stroke-width="2"/>
  <rect x="174" y="142" width="615" height="108" rx="14" fill="#f8fafc"/>
  <rect x="789" y="142" width="57" height="108" fill="#ffffff" stroke="#dbe3ed"/>
  <text x="244" y="185" font-family="Inter, Arial, sans-serif" font-size="28" font-weight="700" fill="#1f2937">Flow Dismissed/Ended</text>
  <text x="244" y="221" font-family="Inter, Arial, sans-serif" font-size="24" fill="#64748b">at least 1 time, at any point in time</text>
  <text x="244" y="247" font-family="Inter, Arial, sans-serif" font-size="24" fill="#64748b">where 1 condition</text>
  <text x="815" y="204" text-anchor="middle" font-family="Inter, Arial, sans-serif" font-size="30" fill="#64748b">x</text>

  <text x="74" y="289" font-family="Inter, Arial, sans-serif" font-size="30" fill="#5436ff">+ Add condition</text>

  <text x="70" y="366" font-family="Inter, Arial, sans-serif" font-size="28" fill="#1f2937">Wait</text>
  <rect x="144" y="327" width="82" height="56" rx="10" fill="#ffffff" stroke="#dbe3ed"/>
  <text x="185" y="364" text-anchor="middle" font-family="Inter, Arial, sans-serif" font-size="26" fill="#1f2937">0</text>
  <text x="242" y="366" font-family="Inter, Arial, sans-serif" font-size="22" fill="#64748b">second before starting</text>

  <text x="70" y="440" font-family="Inter, Arial, sans-serif" font-size="30" fill="#5436ff">Once per user</text>
  <text x="256" y="438" font-family="Inter, Arial, sans-serif" font-size="20" fill="#5436ff">v</text>
  <circle cx="313" cy="428" r="9" stroke="#64748b" stroke-width="1.5"/>
  <text x="310" y="435" font-family="Inter, Arial, sans-serif" font-size="15" font-weight="600" fill="#64748b">?</text>

  <rect x="177" y="262" width="718" height="670" rx="14" fill="#ffffff" stroke="#d8e0ea" stroke-width="2"/>
  <text x="203" y="317" font-family="Inter, Arial, sans-serif" font-size="28" font-weight="700" fill="#64748b">Event</text>

  <rect x="203" y="340" width="666" height="58" rx="10" fill="#ffffff" stroke="#dbe3ed" stroke-width="2"/>
  <text x="228" y="379" font-family="Inter, Arial, sans-serif" font-size="28" fill="#1f2937">Flow Dismissed/Ended</text>
  <text x="831" y="378" text-anchor="middle" font-family="Inter, Arial, sans-serif" font-size="28" fill="#94a3b8">v</text>

  <text x="203" y="462" font-family="Inter, Arial, sans-serif" font-size="30" fill="#5436ff">at least</text>
  <text x="308" y="459" font-family="Inter, Arial, sans-serif" font-size="18" fill="#5436ff">v</text>
  <rect x="352" y="423" width="126" height="58" rx="12" fill="#ffffff" stroke="#dbe3ed" stroke-width="2"/>
  <text x="415" y="462" text-anchor="middle" font-family="Inter, Arial, sans-serif" font-size="30" fill="#1f2937">1</text>
  <text x="496" y="462" font-family="Inter, Arial, sans-serif" font-size="22" fill="#64748b">time</text>

  <text x="203" y="535" font-family="Inter, Arial, sans-serif" font-size="30" fill="#5436ff">at any point in time</text>
  <text x="466" y="531" font-family="Inter, Arial, sans-serif" font-size="18" fill="#5436ff">v</text>

  <text x="203" y="608" font-family="Inter, Arial, sans-serif" font-size="30" fill="#5436ff">by current user in any company</text>
  <text x="628" y="604" font-family="Inter, Arial, sans-serif" font-size="18" fill="#5436ff">v</text>

  <line x1="203" y1="635" x2="869" y2="635" stroke="#e5eaf1" stroke-width="2"/>
  <text x="203" y="682" font-family="Inter, Arial, sans-serif" font-size="28" font-weight="700" fill="#64748b">Where</text>

  <rect x="203" y="710" width="88" height="46" rx="10" fill="#f1f5f9" stroke="#dbe3ed"/>
  <text x="247" y="742" text-anchor="middle" font-family="Inter, Arial, sans-serif" font-size="22" font-weight="700" fill="#1f2937">If</text>

  <rect x="306" y="710" width="563" height="92" rx="12" fill="#ffffff" stroke="#dbe3ed" stroke-width="2"/>
  <rect x="306" y="710" width="507" height="92" rx="12" fill="#ffffff"/>
  <rect x="813" y="710" width="56" height="92" fill="#ffffff" stroke="#dbe3ed"/>
  <text x="376" y="753" font-family="Inter, Arial, sans-serif" font-size="28" font-weight="700" fill="#1f2937">Flow ID</text>
  <text x="494" y="753" font-family="Inter, Arial, sans-serif" font-size="28" fill="#64748b">is</text>
  <text x="376" y="791" font-family="Inter, Arial, sans-serif" font-size="26" font-weight="700" fill="#1f2937">your-original-flow-id</text>
  <text x="841" y="783" text-anchor="middle" font-family="Inter, Arial, sans-serif" font-size="30" fill="#94a3b8">x</text>

  <text x="206" y="898" font-family="Inter, Arial, sans-serif" font-size="30" fill="#5436ff">+ Add condition</text>
</svg>
